<svg width="54" height="52" viewBox="0 0 54 52" fill="none" xmlns="http://www.w3.org/2000/svg">
<path d="M53.0396 25.371C54.0132 24.3001 53.9192 22.6589 52.8296 21.706L28.8248 0.701719C27.7353 -0.251113 25.9884 -0.231153 24.9218 0.746716L0.835381 22.8259C-0.231257 23.8038 -0.283609 25.4429 0.719473 26.4856L1.32335 27.1145C2.32521 28.1572 3.9446 28.2815 4.93805 27.3913L6.73814 25.7793V49.3798C6.73814 50.8278 7.91141 52 9.35834 52H18.7473C20.1942 52 21.3675 50.8278 21.3675 49.3798V32.869H33.3432V49.3798C33.3223 50.8267 34.3576 51.999 35.8046 51.999H45.7545C47.2014 51.999 48.3747 50.8267 48.3747 49.3787V26.1116C48.3747 26.1116 48.8719 26.5472 49.4853 27.0863C50.0976 27.6244 51.3836 27.1929 52.3572 26.1211L53.0396 25.371Z" fill="#C4C4C4"/>
<path d="M48.3747 26.1116L48.7042 25.7355L47.8747 25.0088V26.1116V49.3787C47.8747 50.5505 46.9254 51.499 45.7545 51.499H35.8046C34.6676 51.499 33.8258 50.5871 33.8431 49.387H33.8432V49.3798V32.869V32.369H33.3432H21.3675H20.8675V32.869V49.3798C20.8675 50.5515 19.9182 51.5 18.7473 51.5H9.35834C8.18742 51.5 7.23814 50.5515 7.23814 49.3798V25.7793V24.6603L6.40458 25.4068L4.60449 27.0188L4.60439 27.0189C3.83804 27.7056 2.52486 27.6432 1.68401 26.7682C1.68397 26.7682 1.68393 26.7681 1.68389 26.7681L1.08013 26.1393L1.0798 26.1389C0.271686 25.299 0.31338 23.9828 1.17324 23.1945C1.17325 23.1945 1.17326 23.1945 1.17327 23.1944L25.2596 1.11529L25.2597 1.11527C26.1382 0.3098 27.5977 0.292901 28.4956 1.07801C28.4956 1.07804 28.4957 1.07807 28.4957 1.0781L52.5004 22.0823L52.5005 22.0824C53.3794 22.851 53.4549 24.1709 52.6696 25.0346L51.9874 25.7846L51.9871 25.7849C51.5473 26.269 51.0519 26.5905 50.6265 26.7334C50.1834 26.8823 49.9277 26.8095 49.8153 26.7107C49.5085 26.4411 49.2308 26.1973 49.0297 26.0209L48.7915 25.8121L48.7268 25.7553L48.7099 25.7406L48.7056 25.7368L48.7045 25.7358L48.7043 25.7356L48.7042 25.7355L48.3747 26.1116Z" stroke="black" stroke-opacity="0.25"/>
</svg>
