<svg width="148" height="147" viewBox="0 0 148 147" fill="none" xmlns="http://www.w3.org/2000/svg">
<path d="M73.5032 0C32.9128 0 0 32.9063 0 73.5C0 114.094 32.9095 147 73.5032 147C114.1 147 147.006 114.094 147.006 73.5C147.006 32.9063 114.1 0 73.5032 0ZM73.5032 21.9774C86.9344 21.9774 97.8181 32.8643 97.8181 46.289C97.8181 59.7169 86.9344 70.6007 73.5032 70.6007C60.0785 70.6007 49.1948 59.7169 49.1948 46.289C49.1948 32.8643 60.0785 21.9774 73.5032 21.9774ZM73.4871 127.783C60.0915 127.783 47.8226 122.905 38.3595 114.83C36.0542 112.864 34.724 109.98 34.724 106.955C34.724 93.34 45.7434 82.4433 59.3618 82.4433H87.6511C101.273 82.4433 112.25 93.34 112.25 106.955C112.25 109.984 110.926 112.86 108.618 114.827C99.158 122.905 86.8859 127.783 73.4871 127.783Z" fill="#C4C4C4"/>
<path d="M0.5 73.5C0.5 33.1825 33.1889 0.5 73.5032 0.5C113.824 0.5 146.506 33.1825 146.506 73.5C146.506 113.818 113.824 146.5 73.5032 146.5C33.1856 146.5 0.5 113.818 0.5 73.5ZM98.3181 46.289C98.3181 32.5882 87.2105 21.4774 73.5032 21.4774C59.8023 21.4774 48.6948 32.5883 48.6948 46.289C48.6948 59.993 59.8024 71.1007 73.5032 71.1007C87.2105 71.1007 98.3181 59.9931 98.3181 46.289ZM34.224 106.955C34.224 110.127 35.6185 113.149 38.035 115.21C47.585 123.359 59.9678 128.283 73.4871 128.283C87.0095 128.283 99.3957 123.359 108.943 115.207C111.363 113.145 112.75 110.129 112.75 106.955C112.75 93.0616 101.547 81.9433 87.6511 81.9433H59.3618C45.4705 81.9433 34.224 93.0606 34.224 106.955Z" stroke="#8E8E8E" stroke-opacity="0.5"/>
</svg>
