<svg id="Capa_1" enable-background="new 0 0 510 510" height="512" viewBox="0 0 510 510" width="512" xmlns="http://www.w3.org/2000/svg"><path d="m359.16 0c-83.173 0-150.84 67.667-150.84 150.841 0 36.152 12.789 69.371 34.074 95.381l-32.008 32.007-14.864-14.864c-5.881-5.884-15.4-5.815-21.212-.002-49.466 49.453-11.477 11.467-159.352 159.342-19.944 19.943-19.944 52.394 0 72.338 9.972 9.972 23.07 14.957 36.169 14.957 13.098 0 26.197-4.986 36.169-14.958 144.096-144.097 99.252-99.256 159.347-159.336l.002-.002c.088-.088.164-.186.25-.276 5.714-6.005 5.415-15.278-.249-20.939l-15.046-15.046 31.989-31.989c26.037 21.378 59.33 34.227 95.57 34.227 83.173 0 150.84-67.667 150.84-150.84.001-83.174-67.666-150.841-150.839-150.841zm-144.336 325.094c-6.043 6.043-1.484 1.484-22.966 22.962l-29.91-29.91 22.967-22.962c8.808 8.808-10.225-10.224 29.909 29.91zm-148.742 148.735c-8.246 8.245-21.664 8.246-29.91 0s-8.246-21.664 0-29.911l104.56-104.56 29.913 29.913zm293.078-202.15c-66.631 0-120.838-54.208-120.838-120.839s54.208-120.839 120.838-120.839 120.839 54.209 120.839 120.84c0 66.63-54.208 120.838-120.839 120.838z"/><path d="m362.523 69.077c-27.87-1.916-51.225 20.193-51.225 47.745 0 8.285 6.716 15.001 15.001 15.001s15.001-6.716 15.001-15.001c0-10.29 8.664-18.542 19.159-17.815 8.663.598 15.918 7.852 16.516 16.516.567 8.219-4.473 15.736-12.256 18.281-12.297 4.021-20.56 15.356-20.56 28.206v10.955c0 8.285 6.716 15.001 15.001 15.001s15.001-6.716 15.001-15.001v-10.684c20.796-6.859 34.256-26.917 32.745-48.823-1.633-23.67-20.713-42.75-44.383-44.381z"/><path d="m359.16 201.639c-8.285 0-15.001 6.716-15.001 15.001v1.081c0 8.285 6.716 15.001 15.001 15.001s15.001-6.716 15.001-15.001v-1.081c0-8.285-6.716-15.001-15.001-15.001z"/></svg>