<svg height="512" viewBox="0 0 24 24" width="512" xmlns="http://www.w3.org/2000/svg"><g id="breackbone"><path d="m11.46 10.51-1.34-1.35 2.47-2.46a4.29 4.29 0 1 1 8.1-2.61l-1.88.33a2.41 2.41 0 0 0 -2.35-2 2.38 2.38 0 0 0 -1.69.7 2.4 2.4 0 0 0 -.22 3.12l.51.66z"/><path d="m4.11 20.7a4.23 4.23 0 0 1 -2.3-1.19 4.29 4.29 0 0 1 4.89-6.91l2-2 1.3 1.4-3.07 3.07-.66-.51a2.38 2.38 0 0 0 -3.11 3.6 2.35 2.35 0 0 0 1.25.66z"/><path d="m14.84 13.88-1.35-1.34 2.21-2.23c.4-.39.65-.64.82-.79l.58-.52.64.46a2.39 2.39 0 0 0 3.81-1.91 2.34 2.34 0 0 0 -.71-1.68 2.31 2.31 0 0 0 -1.26-.66 2.37 2.37 0 0 0 -2.1.66l-1.35-1.36a4.26 4.26 0 0 1 3.79-1.19 4.32 4.32 0 0 1 3.54 4.22 4.26 4.26 0 0 1 -1.27 3 4.31 4.31 0 0 1 -4.89.83l-.25.25z"/><path d="m7.55 23.47a4.29 4.29 0 0 1 -3-1.26 4.39 4.39 0 0 1 -1.19-2.27 4.31 4.31 0 0 1 1.19-3.8l1.35 1.35a2.37 2.37 0 0 0 -.66 2.1 2.38 2.38 0 1 0 4.25-1.84l-.49-.67 3.06-3.08 1.35 1.35-2 2a4.32 4.32 0 0 1 -.84 4.89 4.25 4.25 0 0 1 -3.02 1.23z"/><path d="m10.09 7.56h1.91v10.8h-1.91z" transform="matrix(.707 -.707 .707 .707 -5.93 11.6)"/></g></svg>