<svg fill="#000000" xmlns="http://www.w3.org/2000/svg"  viewBox="0 0 64 64" width="64px" height="64px"><path d="M55,21l-0.31,13.516l-0.077,3.379l-0.039,1.689l-0.019,0.845l-0.044,1.024c-0.199,2.772-1.027,5.5-2.407,7.891	c-2.739,4.801-7.703,8.186-13.095,8.946c-0.671,0.102-1.346,0.156-2.02,0.185l-1.007,0.007l-0.845-0.037l-3.379-0.148L25,58v-5	l6.759-0.297l3.379-0.148l1.526-0.077c0.449-0.045,0.896-0.101,1.336-0.192c3.528-0.677,6.621-3.068,8.197-6.192	c0.793-1.557,1.215-3.273,1.254-5l-0.141-6.578L47,21H55z"/><polygon points="61,22 51,8 41,22"/><path d="M9,43l0.31-13.516l0.077-3.379l0.039-1.689l0.019-0.845l0.044-1.024c0.199-2.772,1.027-5.5,2.407-7.891	c2.739-4.801,7.703-8.186,13.095-8.946c0.671-0.102,1.346-0.156,2.02-0.185l1.007-0.007l0.845,0.037l3.379,0.148L39,6v5	l-6.759,0.297l-3.379,0.148l-1.526,0.077c-0.449,0.045-0.896,0.101-1.336,0.192c-3.528,0.677-6.621,3.068-8.197,6.192	c-0.793,1.557-1.215,3.273-1.254,5l0.141,6.578L17,43H9z"/><polygon points="3,42 13,56 23,42"/></svg>